{
  "asset": {
    "version": "2.0",
    "generator": "THREE.GLTFExporter"
  },
  "scenes": [
    {
      "nodes": [
        0
      ]
    }
  ],
  "scene": 0,
  "nodes": [
    {
      "children": [
        9
      ],
      "matrix": [
        0.01,
        0,
        0,
        0,
        0,
        0.01,
        0,
        0,
        0,
        0,
        0.01,
        0,
        0,
        0,
        0,
        1
      ]
    },
    {
      "matrix": [
        -4.615765251233005e-16,
        1,
        2.33486982377251e-16,
        0,
        1.0000000000000002,
        4.4328842558598283e-16,
        -2.6443070312908143e-17,
        0,
        -3.23266361703335e-16,
        1.224646799147353e-16,
        -0.9999999999999999,
        0,
        5.63867725490339e-14,
        0.7559490936718437,
        125.52613124086255,
        1
      ],
      "name": "triangle",
      "mesh": 0
    },
    {
      "matrix": [
        3.1887381538932903e-16,
        -1.6653345369377346e-16,
        0.9999999999999997,
        0,
        0.9999999999999998,
        -8.826550856831025e-18,
        -2.5935422832655563e-16,
        0,
        8.289180334808321e-19,
        1,
        2.775557561562891e-16,
        0,
        5.2695817972635975e-14,
        117.05619753308241,
        0.2609796881745906,
        1
      ],
      "name": "triangle",
      "mesh": 1
    },
    {
      "matrix": [
        -4.524472090125468e-16,
        1,
        2.33486982377251e-16,
        0,
        1,
        4.432884255859844e-16,
        -8.195422154416596e-17,
        0,
        -3.300859500144788e-16,
        6.695352868347747e-17,
        -0.9999999999999999,
        0,
        -2.8233761741950895e-14,
        0.7559490936718739,
        -114.2609796881745,
        1
      ],
      "name": "Rectangle 2",
      "mesh": 2
    },
    {
      "matrix": [
        3.33066907387547e-16,
        -2.1960919456943654e-16,
        1,
        0,
        -1.3596310734468905e-32,
        -0.9999999999999999,
        -1.3634246772254973e-16,
        0,
        1.0000000000000002,
        4.6222318665293666e-32,
        -1.6653345369377348e-16,
        0,
        113.79044956945867,
        0.43412797853269336,
        0.260979688174536,
        1
      ],
      "name": "Rectangle 3",
      "mesh": 3
    },
    {
      "matrix": [
        3.579399896552299e-16,
        -1.6653345369377348e-16,
        1,
        0,
        0.9999999999999999,
        2.1871208377741527e-17,
        -1.3589538473019852e-16,
        0,
        3.36399428535163e-17,
        1,
        2.220446049250313e-16,
        0,
        5.705924820053282e-14,
        -125.75594909367194,
        0.2609796881745296,
        1
      ],
      "name": "Rectangle",
      "mesh": 4
    },
    {
      "matrix": [
        1,
        0,
        0,
        0,
        0,
        1,
        0,
        0,
        0,
        0,
        1,
        0,
        -247.5,
        127.17837472234635,
        -535.7609796881745,
        1
      ],
      "name": "Group",
      "children": [
        1,
        2,
        3,
        4,
        5
      ]
    },
    {
      "matrix": [
        0.7431819398262176,
        4.323206428957782e-8,
        0.6690893843995274,
        0,
        0.17025236784021175,
        0.9670849063651078,
        -0.1891055660883409,
        0,
        -0.6470662528373285,
        0.2544538934282373,
        0.7187200293287155,
        0,
        -820.3891675765368,
        526.1915270780919,
        114.77051102192274,
        1
      ],
      "camera": 0
    },
    {
      "matrix": [
        1,
        0,
        0,
        0,
        0,
        1,
        0,
        0,
        0,
        0,
        1,
        0,
        0,
        1,
        0,
        1
      ],
      "name": "Default Ambient Light"
    },
    {
      "name": "Welcome to Spline",
      "children": [
        6,
        7,
        8
      ]
    }
  ],
  "bufferViews": [
    {
      "buffer": 0,
      "byteOffset": 0,
      "byteLength": 2496,
      "target": 34962,
      "byteStride": 12
    },
    {
      "buffer": 0,
      "byteOffset": 2496,
      "byteLength": 2496,
      "target": 34962,
      "byteStride": 12
    },
    {
      "buffer": 0,
      "byteOffset": 4992,
      "byteLength": 1664,
      "target": 34962,
      "byteStride": 8
    },
    {
      "buffer": 0,
      "byteOffset": 6656,
      "byteLength": 2448,
      "target": 34963
    },
    {
      "buffer": 0,
      "byteOffset": 9104,
      "byteLength": 2496,
      "target": 34962,
      "byteStride": 12
    },
    {
      "buffer": 0,
      "byteOffset": 11600,
      "byteLength": 2496,
      "target": 34962,
      "byteStride": 12
    },
    {
      "buffer": 0,
      "byteOffset": 14096,
      "byteLength": 1664,
      "target": 34962,
      "byteStride": 8
    },
    {
      "buffer": 0,
      "byteOffset": 15760,
      "byteLength": 2448,
      "target": 34963
    },
    {
      "buffer": 0,
      "byteOffset": 18208,
      "byteLength": 288,
      "target": 34962,
      "byteStride": 12
    },
    {
      "buffer": 0,
      "byteOffset": 18496,
      "byteLength": 288,
      "target": 34962,
      "byteStride": 12
    },
    {
      "buffer": 0,
      "byteOffset": 18784,
      "byteLength": 192,
      "target": 34962,
      "byteStride": 8
    },
    {
      "buffer": 0,
      "byteOffset": 18976,
      "byteLength": 144,
      "target": 34963
    }
  ],
  "buffers": [
    {
      "byteLength": 19120,
      "uri": "data:application/octet-stream;base64,"
    }
  ],
  "accessors": [
    {
      "bufferView": 0,
      "componentType": 5126,
      "count": 208,
      "max": [
        125,
        113.8376235961914,
        8
      ],
      "min": [
        -113.84117889404297,
        -125,
        0
      ],
      "type": "VEC3"
    },
    {
      "bufferView": 1,
      "componentType": 5126,
      "count": 208,
      "max": [
        1,
        0.9970564246177673,
        1
      ],
      "min": [
        -0.9970731139183044,
        -1,
        -1
      ],
      "type": "VEC3"
    },
    {
      "bufferView": 2,
      "componentType": 5126,
      "count": 208,
      "max": [
        1,
        1
      ],
      "min": [
        0,
        0
      ],
      "type": "VEC2"
    },
    {
      "bufferView": 3,
      "componentType": 5125,
      "count": 612,
      "max": [
        207
      ],
      "min": [
        0
      ],
      "type": "SCALAR"
    },
    {
      "bufferView": 4,
      "componentType": 5126,
      "count": 208,
      "max": [
        125,
        113.92375183105469,
        8
      ],
      "min": [
        -113.92732238769531,
        -125,
        0
      ],
      "type": "VEC3"
    },
    {
      "bufferView": 5,
      "componentType": 5126,
      "count": 208,
      "max": [
        1,
        0.99744713306427,
        1
      ],
      "min": [
        -0.9974627494812012,
        -1,
        -1
      ],
      "type": "VEC3"
    },
    {
      "bufferView": 6,
      "componentType": 5126,
      "count": 208,
      "max": [
        1,
        1
      ],
      "min": [
        0,
        0
      ],
      "type": "VEC2"
    },
    {
      "bufferView": 7,
      "componentType": 5125,
      "count": 612,
      "max": [
        207
      ],
      "min": [
        0
      ],
      "type": "SCALAR"
    },
    {
      "bufferView": 8,
      "componentType": 5126,
      "count": 24,
      "max": [
        125,
        125,
        11
      ],
      "min": [
        -125,
        -125,
        0
      ],
      "type": "VEC3"
    },
    {
      "bufferView": 9,
      "componentType": 5126,
      "count": 24,
      "max": [
        1,
        1,
        1
      ],
      "min": [
        -1,
        -1,
        -1
      ],
      "type": "VEC3"
    },
    {
      "bufferView": 10,
      "componentType": 5126,
      "count": 24,
      "max": [
        1,
        1
      ],
      "min": [
        0,
        0
      ],
      "type": "VEC2"
    },
    {
      "bufferView": 11,
      "componentType": 5125,
      "count": 36,
      "max": [
        23
      ],
      "min": [
        0
      ],
      "type": "SCALAR"
    }
  ],
  "meshes": [
    {
      "primitives": [
        {
          "mode": 4,
          "attributes": {
            "POSITION": 0,
            "NORMAL": 1,
            "TEXCOORD_0": 2
          },
          "extras": {
            "parameters": {
              "width": 238.8411767828362,
              "subdivisions": 12,
              "roundness": 19,
              "extrudeBevelSize": 0,
              "extrudeBevelSegments": 1,
              "windingRule": 0,
              "depth": 8,
              "cornerRadius": [
                0,
                0,
                0,
                0
              ],
              "cornerType": 1,
              "height": 238.83762504063787,
              "type": "VectorGeometry",
              "shape": {
                "isClosed": true,
                "points": [
                  {
                    "id": "5dcd364f-97f6-47fc-88ed-7f319a6dc409",
                    "fi": 0,
                    "data": {
                      "position": [
                        5.503182024385126,
                        4.498503085308812
                      ],
                      "controlNext": {
                        "position": [
                          5.503182024385126,
                          4.498503085308812
                        ]
                      },
                      "controlPrevious": {
                        "position": [
                          5.503182024385126,
                          4.498503085308812
                        ]
                      },
                      "areControlsDirectionsMirrored": true,
                      "roundness": 19
                    }
                  },
                  {
                    "id": "1bb86c3e-c0fe-4f1b-9b79-22f6dda3d0bf",
                    "fi": 1,
                    "data": {
                      "position": [
                        125,
                        125
                      ],
                      "controlNext": {
                        "position": [
                          125,
                          125
                        ]
                      },
                      "controlPrevious": {
                        "position": [
                          125,
                          125
                        ]
                      },
                      "areControlsDirectionsMirrored": true,
                      "roundness": 19
                    }
                  },
                  {
                    "id": "1bb5cde0-d5d3-424a-beea-1449603ee7cd",
                    "fi": 2,
                    "data": {
                      "position": [
                        125,
                        -125
                      ],
                      "controlNext": {
                        "position": [
                          125,
                          -125
                        ]
                      },
                      "controlPrevious": {
                        "position": [
                          125,
                          -125
                        ]
                      },
                      "areControlsDirectionsMirrored": true,
                      "roundness": 19
                    }
                  },
                  {
                    "id": "f4ef0277-cd53-4558-98f1-e9835e3405fc",
                    "fi": 3,
                    "data": {
                      "position": [
                        -125,
                        -125
                      ],
                      "controlNext": {
                        "position": [
                          -125,
                          -125
                        ]
                      },
                      "controlPrevious": {
                        "position": [
                          -125,
                          -125
                        ]
                      },
                      "areControlsDirectionsMirrored": true,
                      "roundness": 19
                    }
                  }
                ],
                "roundness": 19,
                "shapeHoles": []
              }
            },
            "shape": {
              "points": [
                5.503182024385126,
                4.498503085308812,
                5.503182024385126,
                4.498503085308812,
                5.503182024385126,
                4.498503085308812,
                19,
                125,
                125,
                125,
                125,
                125,
                125,
                19,
                125,
                -125,
                125,
                -125,
                125,
                -125,
                19,
                -125,
                -125,
                -125,
                -125,
                -125,
                -125,
                19
              ],
              "shapeHoles": [],
              "isClosed": true,
              "roundness": 19
            },
            "type": "VectorGeometry"
          },
          "indices": 3
        }
      ]
    },
    {
      "primitives": [
        {
          "mode": 4,
          "attributes": {
            "POSITION": 4,
            "NORMAL": 5,
            "TEXCOORD_0": 6
          },
          "extras": {
            "parameters": {
              "width": 238.9273239900114,
              "subdivisions": 12,
              "roundness": 19,
              "extrudeBevelSize": 0,
              "extrudeBevelSegments": 1,
              "windingRule": 0,
              "depth": 8,
              "cornerRadius": [
                0,
                0,
                0,
                0
              ],
              "cornerType": 1,
              "height": 238.92375411740232,
              "type": "VectorGeometry",
              "shape": {
                "isClosed": true,
                "points": [
                  {
                    "id": "4a05511d-9e7c-43b2-a4c3-d347f6f1c298",
                    "fi": 0,
                    "data": {
                      "position": [
                        -5.816517191297407,
                        -4.872551264190321
                      ],
                      "controlNext": {
                        "position": [
                          -5.816517191297407,
                          -4.872551264190321
                        ]
                      },
                      "controlPrevious": {
                        "position": [
                          -5.816517191297407,
                          -4.872551264190321
                        ]
                      },
                      "areControlsDirectionsMirrored": true,
                      "roundness": 19
                    }
                  },
                  {
                    "id": "c238db78-e7c2-43c0-b556-7eceb448ce77",
                    "fi": 1,
                    "data": {
                      "position": [
                        125,
                        125
                      ],
                      "controlNext": {
                        "position": [
                          125,
                          125
                        ]
                      },
                      "controlPrevious": {
                        "position": [
                          125,
                          125
                        ]
                      },
                      "areControlsDirectionsMirrored": true,
                      "roundness": 19
                    }
                  },
                  {
                    "id": "6a5e6270-9b59-4c7b-9883-873711d67ec1",
                    "fi": 2,
                    "data": {
                      "position": [
                        125,
                        -125
                      ],
                      "controlNext": {
                        "position": [
                          125,
                          -125
                        ]
                      },
                      "controlPrevious": {
                        "position": [
                          125,
                          -125
                        ]
                      },
                      "areControlsDirectionsMirrored": true,
                      "roundness": 19
                    }
                  },
                  {
                    "id": "dd857dc1-5c01-48f1-815e-aeeec4f8895b",
                    "fi": 3,
                    "data": {
                      "position": [
                        -125,
                        -125
                      ],
                      "controlNext": {
                        "position": [
                          -125,
                          -125
                        ]
                      },
                      "controlPrevious": {
                        "position": [
                          -125,
                          -125
                        ]
                      },
                      "areControlsDirectionsMirrored": true,
                      "roundness": 19
                    }
                  }
                ],
                "roundness": 19,
                "shapeHoles": []
              }
            },
            "shape": {
              "points": [
                -5.816517191297407,
                -4.872551264190321,
                -5.816517191297407,
                -4.872551264190321,
                -5.816517191297407,
                -4.872551264190321,
                19,
                125,
                125,
                125,
                125,
                125,
                125,
                19,
                125,
                -125,
                125,
                -125,
                125,
                -125,
                19,
                -125,
                -125,
                -125,
                -125,
                -125,
                -125,
                19
              ],
              "shapeHoles": [],
              "isClosed": true,
              "roundness": 19
            },
            "type": "VectorGeometry"
          },
          "indices": 7
        }
      ]
    },
    {
      "primitives": [
        {
          "mode": 4,
          "attributes": {
            "POSITION": 8,
            "NORMAL": 9,
            "TEXCOORD_0": 10
          },
          "extras": {
            "shape": {
              "points": [
                -125,
                125,
                -125,
                125,
                -125,
                125,
                0,
                125,
                125,
                125,
                125,
                125,
                125,
                0,
                125,
                -125,
                125,
                -125,
                125,
                -125,
                0,
                -125,
                -125,
                -125,
                -125,
                -125,
                -125,
                0
              ],
              "shapeHoles": [],
              "isClosed": true,
              "roundness": 0
            },
            "parameters": {
              "width": 250,
              "depth": 11,
              "cornerRadius": [
                0,
                0,
                0,
                0
              ],
              "cornerType": 1,
              "extrudeBevelSize": 0,
              "extrudeBevelSegments": 1,
              "height": 250,
              "type": "RectangleGeometry"
            },
            "ui": {
              "enabledIndieCorners": false
            },
            "type": "RectangleGeometry"
          },
          "indices": 11
        }
      ]
    },
    {
      "primitives": [
        {
          "mode": 4,
          "attributes": {
            "POSITION": 8,
            "NORMAL": 9,
            "TEXCOORD_0": 10
          },
          "extras": {
            "shape": {
              "points": [
                -125,
                125,
                -125,
                125,
                -125,
                125,
                0,
                125,
                125,
                125,
                125,
                125,
                125,
                0,
                125,
                -125,
                125,
                -125,
                125,
                -125,
                0,
                -125,
                -125,
                -125,
                -125,
                -125,
                -125,
                0
              ],
              "shapeHoles": [],
              "isClosed": true,
              "roundness": 0
            },
            "parameters": {
              "width": 250,
              "depth": 11,
              "cornerRadius": [
                0,
                0,
                0,
                0
              ],
              "cornerType": 1,
              "extrudeBevelSize": 0,
              "extrudeBevelSegments": 1,
              "height": 250,
              "type": "RectangleGeometry"
            },
            "ui": {
              "enabledIndieCorners": false
            },
            "type": "RectangleGeometry"
          },
          "indices": 11
        }
      ]
    },
    {
      "primitives": [
        {
          "mode": 4,
          "attributes": {
            "POSITION": 8,
            "NORMAL": 9,
            "TEXCOORD_0": 10
          },
          "extras": {
            "shape": {
              "points": [
                -125,
                125,
                -125,
                125,
                -125,
                125,
                0,
                125,
                125,
                125,
                125,
                125,
                125,
                0,
                125,
                -125,
                125,
                -125,
                125,
                -125,
                0,
                -125,
                -125,
                -125,
                -125,
                -125,
                -125,
                0
              ],
              "shapeHoles": [],
              "isClosed": true,
              "roundness": 0
            },
            "parameters": {
              "width": 250,
              "depth": 11,
              "cornerRadius": [
                0,
                0,
                0,
                0
              ],
              "cornerType": 1,
              "extrudeBevelSize": 0,
              "extrudeBevelSegments": 1,
              "height": 250,
              "type": "RectangleGeometry"
            },
            "ui": {
              "enabledIndieCorners": false
            },
            "type": "RectangleGeometry"
          },
          "indices": 11
        }
      ]
    }
  ],
  "cameras": [
    {
      "type": "perspective",
      "perspective": {
        "aspectRatio": 1.7381864623243934,
        "yfov": 0.7853981633974483,
        "zfar": 100000,
        "znear": 70
      }
    }
  ]
}