{
  "asset": {
    "version": "2.0",
    "generator": "THREE.GLTFExporter"
  },
  "scenes": [
    {
      "nodes": [
        0
      ]
    }
  ],
  "scene": 0,
  "nodes": [
    {
      "children": [
        7
      ],
      "matrix": [
        0.01,
        0,
        0,
        0,
        0,
        0.01,
        0,
        0,
        0,
        0,
        0.01,
        0,
        0,
        0,
        0,
        1
      ]
    },
    {
      "matrix": [
        0.5347821916728253,
        0,
        0,
        0,
        0,
        0.5347821916728253,
        0,
        0,
        0,
        0,
        0.5347821916728253,
        0,
        -3.702102293885945,
        -0.7605483977506254,
        -31.891966211636642,
        1
      ],
      "name": "Cylinder",
      "mesh": 0
    },
    {
      "matrix": [
        0.244074148498711,
        1.3741851680112615e-16,
        -0.5154771962559632,
        0,
        -7.47870146081132e-17,
        0.5703410644739596,
        1.1663337714690548e-16,
        0,
        0.5154771962559632,
        1.768031274792483e-17,
        0.244074148498711,
        0,
        59.86950551357798,
        97.35567082049303,
        -60.059839686325844,
        1
      ],
      "name": "Cube 19",
      "mesh": 1
    },
    {
      "matrix": [
        0.244074148498711,
        1.3741851680112615e-16,
        -0.5154771962559632,
        0,
        -7.47870146081132e-17,
        0.5703410644739596,
        1.1663337714690548e-16,
        0,
        0.5154771962559632,
        1.768031274792483e-17,
        0.244074148498711,
        0,
        59.86950551357798,
        97.35567082049303,
        -60.059839686325844,
        1
      ],
      "name": "stone-2",
      "mesh": 2
    },
    {
      "matrix": [
        1,
        0,
        0,
        0,
        0,
        1,
        0,
        0,
        0,
        0,
        1,
        0,
        -101,
        158,
        25,
        1
      ],
      "name": "Mountain_green",
      "children": [
        1,
        2,
        3
      ]
    },
    {
      "matrix": [
        0.9983335317665248,
        2.5606241429738247e-8,
        -0.05770753287549533,
        0,
        0.007229295052758579,
        0.9921220359833213,
        0.12506639440453068,
        0,
        0.05725291821049116,
        -0.125275160013104,
        0.9904686959415093,
        0,
        -35.99262314552494,
        197.02483345866546,
        970.7454054613456,
        1
      ],
      "camera": 0
    },
    {
      "matrix": [
        1,
        0,
        0,
        0,
        0,
        1,
        0,
        0,
        0,
        0,
        1,
        0,
        0,
        1,
        0,
        1
      ],
      "name": "Default Ambient Light"
    },
    {
      "name": "Welcome to Spline",
      "children": [
        4,
        5,
        6
      ]
    }
  ],
  "bufferViews": [
    {
      "buffer": 0,
      "byteOffset": 0,
      "byteLength": 13824,
      "target": 34962,
      "byteStride": 12
    },
    {
      "buffer": 0,
      "byteOffset": 13824,
      "byteLength": 13824,
      "target": 34962,
      "byteStride": 12
    },
    {
      "buffer": 0,
      "byteOffset": 27648,
      "byteLength": 6912,
      "target": 34963
    },
    {
      "buffer": 0,
      "byteOffset": 34560,
      "byteLength": 2064,
      "target": 34962,
      "byteStride": 12
    },
    {
      "buffer": 0,
      "byteOffset": 36624,
      "byteLength": 2064,
      "target": 34962,
      "byteStride": 12
    },
    {
      "buffer": 0,
      "byteOffset": 38688,
      "byteLength": 1032,
      "target": 34963
    },
    {
      "buffer": 0,
      "byteOffset": 39720,
      "byteLength": 4416,
      "target": 34962,
      "byteStride": 12
    },
    {
      "buffer": 0,
      "byteOffset": 44136,
      "byteLength": 4416,
      "target": 34962,
      "byteStride": 12
    },
    {
      "buffer": 0,
      "byteOffset": 48552,
      "byteLength": 2208,
      "target": 34963
    }
  ],
  "buffers": [
    {
      "byteLength": 50760,
      "uri": "data:application/octet-stream;base64,"
    }
  ],
  "accessors": [
    {
      "bufferView": 0,
      "componentType": 5126,
      "count": 1152,
      "max": [
        572.7560424804688,
        192.2049102783203,
        564.107177734375
      ],
      "min": [
        -562.7265014648438,
        -2.694227933883667,
        -539.44287109375
      ],
      "type": "VEC3"
    },
    {
      "bufferView": 1,
      "componentType": 5126,
      "count": 1152,
      "max": [
        0.966723620891571,
        0.9983900189399719,
        0.8934353590011597
      ],
      "min": [
        -0.9497187733650208,
        -1,
        -0.9770686626434326
      ],
      "type": "VEC3"
    },
    {
      "bufferView": 2,
      "componentType": 5125,
      "count": 1728,
      "max": [
        1151
      ],
      "min": [
        0
      ],
      "type": "SCALAR"
    },
    {
      "bufferView": 3,
      "componentType": 5126,
      "count": 172,
      "max": [
        244.60549926757812,
        382.465087890625,
        223.52476501464844
      ],
      "min": [
        -221.0814208984375,
        224.48013305664062,
        -263.6790771484375
      ],
      "type": "VEC3"
    },
    {
      "bufferView": 4,
      "componentType": 5126,
      "count": 172,
      "max": [
        0.9959681630134583,
        0.9998199343681335,
        0.951131284236908
      ],
      "min": [
        -0.9919278621673584,
        -0.2990548014640808,
        -0.9999099373817444
      ],
      "type": "VEC3"
    },
    {
      "bufferView": 5,
      "componentType": 5125,
      "count": 258,
      "max": [
        171
      ],
      "min": [
        0
      ],
      "type": "SCALAR"
    },
    {
      "bufferView": 6,
      "componentType": 5126,
      "count": 368,
      "max": [
        354.50531005859375,
        365.9843444824219,
        318.634765625
      ],
      "min": [
        -368.6991271972656,
        -142.82823181152344,
        -354.7110900878906
      ],
      "type": "VEC3"
    },
    {
      "bufferView": 7,
      "componentType": 5126,
      "count": 368,
      "max": [
        0.992466926574707,
        0.9846557974815369,
        0.9606836438179016
      ],
      "min": [
        -0.9973244667053223,
        -0.44016996026039124,
        -0.9959599375724792
      ],
      "type": "VEC3"
    },
    {
      "bufferView": 8,
      "componentType": 5125,
      "count": 552,
      "max": [
        367
      ],
      "min": [
        0
      ],
      "type": "SCALAR"
    }
  ],
  "meshes": [
    {
      "primitives": [
        {
          "mode": 4,
          "attributes": {
            "POSITION": 0,
            "NORMAL": 1
          },
          "extras": {
            "type": "SubdivGeometry",
            "parameters": {
              "width": 1168.8347778320312,
              "height": 206.83962869644165,
              "depth": 1125.281494140625
            }
          },
          "indices": 2
        }
      ]
    },
    {
      "primitives": [
        {
          "mode": 4,
          "attributes": {
            "POSITION": 3,
            "NORMAL": 4
          },
          "extras": {
            "type": "SubdivGeometry",
            "parameters": {
              "width": 465.6869201660156,
              "height": 157.98495483398438,
              "depth": 487.20384216308594
            }
          },
          "indices": 5
        }
      ]
    },
    {
      "primitives": [
        {
          "mode": 4,
          "attributes": {
            "POSITION": 6,
            "NORMAL": 7
          },
          "extras": {
            "type": "SubdivGeometry",
            "parameters": {
              "width": 723.2044372558594,
              "height": 508.8125762939453,
              "depth": 673.3458557128906
            }
          },
          "indices": 8
        }
      ]
    }
  ],
  "cameras": [
    {
      "type": "perspective",
      "perspective": {
        "aspectRatio": 1.9310344827586208,
        "yfov": 0.7853981633974483,
        "zfar": 100000,
        "znear": 70
      }
    }
  ]
}