{
  "asset": {
    "version": "2.0",
    "generator": "THREE.GLTFExporter"
  },
  "scenes": [
    {
      "nodes": [
        0
      ]
    }
  ],
  "scene": 0,
  "nodes": [
    {
      "children": [
        4
      ],
      "matrix": [
        0.01,
        0,
        0,
        0,
        0,
        0.01,
        0,
        0,
        0,
        0,
        0.01,
        0,
        0,
        0,
        0,
        1
      ]
    },
    {
      "matrix": [
        0.36719215711326086,
        0,
        0,
        0,
        0,
        0.36719215711326086,
        0,
        0,
        0,
        0,
        0.36719215711326086,
        0,
        0,
        -9.094947017729282e-13,
        0,
        1
      ],
      "name": "hand06",
      "mesh": 0
    },
    {
      "matrix": [
        0.9983335317665248,
        2.5606241429738247e-8,
        -0.05770753287549533,
        0,
        0.007229295052758579,
        0.9921220359833213,
        0.12506639440453068,
        0,
        0.05725291821049116,
        -0.125275160013104,
        0.9904686959415093,
        0,
        -35.99262314552494,
        197.02483345866546,
        970.7454054613456,
        1
      ],
      "camera": 0
    },
    {
      "matrix": [
        1,
        0,
        0,
        0,
        0,
        1,
        0,
        0,
        0,
        0,
        1,
        0,
        0,
        1,
        0,
        1
      ],
      "name": "Default Ambient Light"
    },
    {
      "name": "Welcome to Spline",
      "children": [
        1,
        2,
        3
      ]
    }
  ],
  "bufferViews": [
    {
      "buffer": 0,
      "byteOffset": 0,
      "byteLength": 255744,
      "target": 34962,
      "byteStride": 12
    },
    {
      "buffer": 0,
      "byteOffset": 255744,
      "byteLength": 255744,
      "target": 34962,
      "byteStride": 12
    },
    {
      "buffer": 0,
      "byteOffset": 511488,
      "byteLength": 170496,
      "target": 34962,
      "byteStride": 8
    }
  ],
  "buffers": [
    {
      "byteLength": 681984,
      "uri": "data:application/octet-stream;base64,"
    }
  ],
  "accessors": [
    {
      "bufferView": 0,
      "componentType": 5126,
      "count": 21312,
      "max": [
        604.5567626953125,
        586.6403198242188,
        301.7641906738281
      ],
      "min": [
        -547.9889526367188,
        -390.4620666503906,
        -383.50335693359375
      ],
      "type": "VEC3"
    },
    {
      "bufferView": 1,
      "componentType": 5126,
      "count": 21312,
      "max": [
        0.9996960163116455,
        0.9998639822006226,
        0.9999909996986389
      ],
      "min": [
        -0.9999989867210388,
        -0.9998900294303894,
        -0.999625027179718
      ],
      "type": "VEC3"
    },
    {
      "bufferView": 2,
      "componentType": 5126,
      "count": 21312,
      "max": [
        5.965000152587891,
        1
      ],
      "min": [
        -564988854927360,
        0
      ],
      "type": "VEC2"
    }
  ],
  "meshes": [
    {
      "primitives": [
        {
          "mode": 4,
          "attributes": {
            "POSITION": 0,
            "NORMAL": 1,
            "TEXCOORD_0": 2
          },
          "extras": {
            "parameters": {
              "width": 1152.5457153320312,
              "height": 977.1023864746094,
              "depth": 685.2675476074219,
              "subdivisions": 0
            },
            "type": "NonParametricGeometry"
          }
        }
      ]
    }
  ],
  "cameras": [
    {
      "type": "perspective",
      "perspective": {
        "aspectRatio": 1.9310344827586208,
        "yfov": 0.7853981633974483,
        "zfar": 100000,
        "znear": 70
      }
    }
  ]
}