{
  "asset": {
    "version": "2.0",
    "generator": "THREE.GLTFExporter"
  },
  "scenes": [
    {
      "nodes": [
        0
      ]
    }
  ],
  "scene": 0,
  "nodes": [
    {
      "children": [
        7
      ],
      "matrix": [
        0.01,
        0,
        0,
        0,
        0,
        0.01,
        0,
        0,
        0,
        0,
        0.01,
        0,
        0,
        0,
        0,
        1
      ]
    },
    {
      "matrix": [
        1.298141838378945,
        -0.4787962701915577,
        -0.1591608279825943,
        0,
        0.5015447189534568,
        1.272445618939751,
        0.26284084879305747,
        0,
        0.055053904524116785,
        -0.30230208162533284,
        1.3584302665595174,
        0,
        1.5386262541197067,
        -1.6425321515294988e-15,
        -2.0367449104470627,
        1
      ],
      "name": "saturno",
      "mesh": 0
    },
    {
      "matrix": [
        0.5653260091250542,
        -0.16911793391994237,
        -0.1768940969742585,
        0,
        -0.1080731192643547,
        0.22698462880445266,
        -0.5623913876384726,
        0,
        0.21957367330843858,
        0.5471407464483923,
        0.17863454110749202,
        0,
        -0.5102524728913799,
        -1.271463535169607,
        -0.4151167804888722,
        0.9999999999999998
      ],
      "name": "Ellipse 2",
      "mesh": 1
    },
    {
      "matrix": [
        0.5653260091250542,
        -0.16911793391994237,
        -0.1768940969742585,
        0,
        -0.1080731192643547,
        0.22698462880445266,
        -0.5623913876384726,
        0,
        0.21957367330843858,
        0.5471407464483923,
        0.17863454110749202,
        0,
        -0.6587210199253077,
        -1.641422239345177,
        -0.5359036233224821,
        0.9999999999999998
      ],
      "name": "Ellipse",
      "mesh": 2
    },
    {
      "matrix": [
        1,
        0,
        0,
        0,
        0,
        1,
        0,
        0,
        0,
        0,
        1,
        0,
        -44,
        324,
        44,
        1
      ],
      "name": "Planet",
      "children": [
        1,
        2,
        3
      ]
    },
    {
      "matrix": [
        0.9983335317665248,
        2.5606241429738247e-8,
        -0.05770753287549533,
        0,
        0.007229295052758579,
        0.9921220359833213,
        0.12506639440453068,
        0,
        0.05725291821049116,
        -0.125275160013104,
        0.9904686959415093,
        0,
        -35.99262314552494,
        197.02483345866546,
        970.7454054613456,
        1
      ],
      "camera": 0
    },
    {
      "matrix": [
        1,
        0,
        0,
        0,
        0,
        1,
        0,
        0,
        0,
        0,
        1,
        0,
        0,
        1,
        0,
        1
      ],
      "name": "Default Ambient Light"
    },
    {
      "name": "Welcome to Spline",
      "children": [
        4,
        5,
        6
      ]
    }
  ],
  "bufferViews": [
    {
      "buffer": 0,
      "byteOffset": 0,
      "byteLength": 13068,
      "target": 34962,
      "byteStride": 12
    },
    {
      "buffer": 0,
      "byteOffset": 13068,
      "byteLength": 13068,
      "target": 34962,
      "byteStride": 12
    },
    {
      "buffer": 0,
      "byteOffset": 26136,
      "byteLength": 8712,
      "target": 34962,
      "byteStride": 8
    },
    {
      "buffer": 0,
      "byteOffset": 34848,
      "byteLength": 11904,
      "target": 34963
    },
    {
      "buffer": 0,
      "byteOffset": 46752,
      "byteLength": 4704,
      "target": 34962,
      "byteStride": 12
    },
    {
      "buffer": 0,
      "byteOffset": 51456,
      "byteLength": 4704,
      "target": 34962,
      "byteStride": 12
    },
    {
      "buffer": 0,
      "byteOffset": 56160,
      "byteLength": 3136,
      "target": 34962,
      "byteStride": 8
    },
    {
      "buffer": 0,
      "byteOffset": 59296,
      "byteLength": 6144,
      "target": 34963
    },
    {
      "buffer": 0,
      "byteOffset": 65440,
      "byteLength": 6432,
      "target": 34962,
      "byteStride": 12
    },
    {
      "buffer": 0,
      "byteOffset": 71872,
      "byteLength": 6432,
      "target": 34962,
      "byteStride": 12
    },
    {
      "buffer": 0,
      "byteOffset": 78304,
      "byteLength": 4288,
      "target": 34962,
      "byteStride": 8
    },
    {
      "buffer": 0,
      "byteOffset": 82592,
      "byteLength": 8448,
      "target": 34963
    }
  ],
  "buffers": [
    {
      "byteLength": 91040,
      "uri": "data:application/octet-stream;base64,"
    }
  ],
  "accessors": [
    {
      "bufferView": 0,
      "componentType": 5126,
      "count": 1089,
      "max": [
        50,
        50,
        50
      ],
      "min": [
        -50,
        -50,
        -50
      ],
      "type": "VEC3"
    },
    {
      "bufferView": 1,
      "componentType": 5126,
      "count": 1089,
      "max": [
        1,
        1,
        1
      ],
      "min": [
        -1,
        -1,
        -1
      ],
      "type": "VEC3"
    },
    {
      "bufferView": 2,
      "componentType": 5126,
      "count": 1089,
      "max": [
        1.015625,
        1
      ],
      "min": [
        -0.015625,
        0
      ],
      "type": "VEC2"
    },
    {
      "bufferView": 3,
      "componentType": 5123,
      "count": 5952,
      "max": [
        1088
      ],
      "min": [
        0
      ],
      "type": "SCALAR"
    },
    {
      "bufferView": 4,
      "componentType": 5126,
      "count": 392,
      "max": [
        188.67947387695312,
        188.67947387695312,
        4.647665500640869
      ],
      "min": [
        -188.67947387695312,
        -188.67947387695312,
        0
      ],
      "type": "VEC3"
    },
    {
      "bufferView": 5,
      "componentType": 5126,
      "count": 392,
      "max": [
        0.9949572086334229,
        0.9949572086334229,
        1
      ],
      "min": [
        -0.9949572086334229,
        -0.9949572086334229,
        -1
      ],
      "type": "VEC3"
    },
    {
      "bufferView": 6,
      "componentType": 5126,
      "count": 392,
      "max": [
        1,
        1
      ],
      "min": [
        0,
        0
      ],
      "type": "VEC2"
    },
    {
      "bufferView": 7,
      "componentType": 5125,
      "count": 1536,
      "max": [
        391
      ],
      "min": [
        0
      ],
      "type": "SCALAR"
    },
    {
      "bufferView": 8,
      "componentType": 5126,
      "count": 536,
      "max": [
        243.57968139648438,
        243.57968139648438,
        6
      ],
      "min": [
        -243.57968139648438,
        -243.57968139648438,
        0
      ],
      "type": "VEC3"
    },
    {
      "bufferView": 9,
      "componentType": 5126,
      "count": 536,
      "max": [
        0.9973189830780029,
        0.9973189830780029,
        1
      ],
      "min": [
        -0.9973189830780029,
        -0.9973189830780029,
        -1
      ],
      "type": "VEC3"
    },
    {
      "bufferView": 10,
      "componentType": 5126,
      "count": 536,
      "max": [
        1,
        1
      ],
      "min": [
        0,
        0
      ],
      "type": "VEC2"
    },
    {
      "bufferView": 11,
      "componentType": 5125,
      "count": 2112,
      "max": [
        535
      ],
      "min": [
        0
      ],
      "type": "SCALAR"
    }
  ],
  "meshes": [
    {
      "primitives": [
        {
          "mode": 4,
          "attributes": {
            "POSITION": 0,
            "NORMAL": 1,
            "TEXCOORD_0": 2
          },
          "extras": {
            "parameters": {
              "width": 100,
              "widthSegments": 32,
              "heightSegments": 32,
              "phiStart": 0,
              "phiLength": 6.283185307179586,
              "thetaStart": 0,
              "thetaLength": 180,
              "height": 100,
              "depth": 100,
              "type": "SphereGeometry"
            },
            "type": "SphereGeometry"
          },
          "indices": 3
        }
      ]
    },
    {
      "primitives": [
        {
          "mode": 4,
          "attributes": {
            "POSITION": 4,
            "NORMAL": 5,
            "TEXCOORD_0": 6
          },
          "extras": {
            "shape": {
              "points": [
                -188.67947548186714,
                0,
                -188.67947548186714,
                -104.20479690889823,
                -188.67947548186714,
                104.20479690889823,
                0,
                0,
                188.67947548186714,
                -104.20479690889823,
                188.67947548186714,
                104.20479690889823,
                188.67947548186714,
                0,
                188.67947548186714,
                0,
                188.67947548186714,
                104.20479690889823,
                188.67947548186714,
                -104.20479690889823,
                0,
                0,
                -188.67947548186714,
                104.20479690889823,
                -188.67947548186714,
                -104.20479690889823,
                -188.67947548186714,
                0
              ],
              "shapeHoles": [
                {
                  "points": [
                    0,
                    -145.28319612103772,
                    -80.23769361985165,
                    -145.28319612103772,
                    80.23769361985165,
                    -145.28319612103772,
                    0,
                    145.28319612103772,
                    0,
                    145.28319612103772,
                    -80.23769361985165,
                    145.28319612103772,
                    80.23769361985165,
                    0,
                    0,
                    145.28319612103772,
                    80.23769361985165,
                    145.28319612103772,
                    -80.23769361985165,
                    145.28319612103772,
                    0,
                    -145.28319612103772,
                    0,
                    -145.28319612103772,
                    80.23769361985165,
                    -145.28319612103772,
                    -80.23769361985165,
                    0
                  ],
                  "shapeHoles": [],
                  "isClosed": true,
                  "roundness": 0
                }
              ],
              "isClosed": true,
              "roundness": 0
            },
            "parameters": {
              "width": 377.3589509637343,
              "depth": 4.6476653161839785,
              "spikes": 32,
              "angle": 360,
              "innerRadius": 77,
              "extrudeBevelSize": 1,
              "extrudeBevelSegments": 1,
              "height": 377.3589509637343,
              "type": "EllipseGeometry"
            },
            "type": "EllipseGeometry"
          },
          "indices": 7
        }
      ]
    },
    {
      "primitives": [
        {
          "mode": 4,
          "attributes": {
            "POSITION": 8,
            "NORMAL": 9,
            "TEXCOORD_0": 10
          },
          "extras": {
            "shape": {
              "points": [
                -243.57968482565093,
                0,
                -243.57968482565093,
                -134.52534529029748,
                -243.57968482565093,
                134.52534529029748,
                0,
                0,
                243.57968482565093,
                -134.52534529029748,
                243.57968482565093,
                134.52534529029748,
                243.57968482565093,
                0,
                243.57968482565093,
                0,
                243.57968482565093,
                134.52534529029748,
                243.57968482565093,
                -134.52534529029748,
                0,
                0,
                -243.57968482565093,
                134.52534529029748,
                -243.57968482565093,
                -134.52534529029748,
                -243.57968482565093,
                0
              ],
              "shapeHoles": [
                {
                  "points": [
                    0,
                    -199.73534155703376,
                    -110.31078313804393,
                    -199.73534155703376,
                    110.31078313804393,
                    -199.73534155703376,
                    0,
                    199.73534155703376,
                    0,
                    199.73534155703376,
                    -110.31078313804393,
                    199.73534155703376,
                    110.31078313804393,
                    0,
                    0,
                    199.73534155703376,
                    110.31078313804393,
                    199.73534155703376,
                    -110.31078313804393,
                    199.73534155703376,
                    0,
                    -199.73534155703376,
                    0,
                    -199.73534155703376,
                    110.31078313804393,
                    -199.73534155703376,
                    -110.31078313804393,
                    0
                  ],
                  "shapeHoles": [],
                  "isClosed": true,
                  "roundness": 0
                }
              ],
              "isClosed": true,
              "roundness": 0
            },
            "parameters": {
              "width": 487.15936965130186,
              "depth": 6,
              "spikes": 42,
              "angle": 360,
              "innerRadius": 82,
              "extrudeBevelSize": 1,
              "extrudeBevelSegments": 1,
              "height": 487.15936965130186,
              "type": "EllipseGeometry"
            },
            "type": "EllipseGeometry"
          },
          "indices": 11
        }
      ]
    }
  ],
  "cameras": [
    {
      "type": "perspective",
      "perspective": {
        "aspectRatio": 1.9310344827586208,
        "yfov": 0.7853981633974483,
        "zfar": 100000,
        "znear": 70
      }
    }
  ]
}