{
  "asset": {
    "version": "2.0",
    "generator": "THREE.GLTFExporter"
  },
  "scenes": [
    {
      "nodes": [
        0
      ]
    }
  ],
  "scene": 0,
  "nodes": [
    {
      "children": [
        9
      ],
      "matrix": [
        0.01,
        0,
        0,
        0,
        0,
        0.01,
        0,
        0,
        0,
        0,
        0.01,
        0,
        0,
        0,
        0,
        1
      ]
    },
    {
      "matrix": [
        1.1225561851941048,
        2.311115933264683e-33,
        -6.162975822039155e-33,
        0,
        5.007417855406813e-32,
        1.1225561851941048,
        -2.7755575615628914e-17,
        0,
        3.0814879110195774e-33,
        0,
        1.1225561851941048,
        0,
        -0.07188629842810727,
        -43.67465652951003,
        -0.875612765087025,
        0.9999999999999997
      ],
      "name": "down",
      "mesh": 0
    },
    {
      "matrix": [
        1.122556185194105,
        0,
        0,
        0,
        0,
        1.1225561851941053,
        0,
        0,
        0,
        0,
        1.1225561851941053,
        0,
        -0.3934132768113776,
        5.778726430617866,
        -0.0262115738239004,
        1
      ],
      "name": "up",
      "mesh": 1
    },
    {
      "matrix": [
        0.4026483971429754,
        0,
        0,
        0,
        0,
        0.40264839714297546,
        0,
        0,
        0,
        0,
        0.4026483971429754,
        0,
        0.2694448044436103,
        48.10206310282797,
        57.923460478784264,
        1
      ],
      "name": "teeth",
      "children": [
        1,
        2
      ]
    },
    {
      "matrix": [
        0.3499891129131228,
        0,
        0,
        0,
        0,
        0.4026483971429753,
        0,
        0,
        0,
        0,
        0.40264839714297523,
        0,
        -0.3494414097438497,
        5.734638837923029,
        13.523985950786166,
        1
      ],
      "name": "jaw",
      "mesh": 2
    },
    {
      "matrix": [
        0.5805161428962705,
        0,
        0,
        0,
        0,
        0.48427915978802005,
        0.02366987571497798,
        0,
        0,
        -0.02833977324667788,
        0.579823981407709,
        0,
        -0.7617591360572898,
        130.46674342723014,
        4.791202539916405,
        0.9999999999999997
      ],
      "name": "head",
      "mesh": 3
    },
    {
      "matrix": [
        1,
        0,
        0,
        0,
        0,
        1,
        0,
        0,
        0,
        0,
        1,
        0,
        -72,
        173,
        26,
        1
      ],
      "name": "Skull",
      "children": [
        3,
        4,
        5
      ]
    },
    {
      "matrix": [
        0.9983335317665248,
        2.5606241429738247e-8,
        -0.05770753287549533,
        0,
        0.007229295052758579,
        0.9921220359833213,
        0.12506639440453068,
        0,
        0.05725291821049116,
        -0.125275160013104,
        0.9904686959415093,
        0,
        -35.99262314552494,
        197.02483345866546,
        970.7454054613456,
        1
      ],
      "camera": 0
    },
    {
      "matrix": [
        1,
        0,
        0,
        0,
        0,
        1,
        0,
        0,
        0,
        0,
        1,
        0,
        0,
        1,
        0,
        1
      ],
      "name": "Default Ambient Light"
    },
    {
      "name": "Welcome to Spline",
      "children": [
        6,
        7,
        8
      ]
    }
  ],
  "bufferViews": [
    {
      "buffer": 0,
      "byteOffset": 0,
      "byteLength": 38400,
      "target": 34962,
      "byteStride": 12
    },
    {
      "buffer": 0,
      "byteOffset": 38400,
      "byteLength": 38400,
      "target": 34962,
      "byteStride": 12
    },
    {
      "buffer": 0,
      "byteOffset": 76800,
      "byteLength": 19200,
      "target": 34963
    },
    {
      "buffer": 0,
      "byteOffset": 96000,
      "byteLength": 38400,
      "target": 34962,
      "byteStride": 12
    },
    {
      "buffer": 0,
      "byteOffset": 134400,
      "byteLength": 38400,
      "target": 34962,
      "byteStride": 12
    },
    {
      "buffer": 0,
      "byteOffset": 172800,
      "byteLength": 19200,
      "target": 34963
    },
    {
      "buffer": 0,
      "byteOffset": 192000,
      "byteLength": 19200,
      "target": 34962,
      "byteStride": 12
    },
    {
      "buffer": 0,
      "byteOffset": 211200,
      "byteLength": 19200,
      "target": 34962,
      "byteStride": 12
    },
    {
      "buffer": 0,
      "byteOffset": 230400,
      "byteLength": 9600,
      "target": 34963
    },
    {
      "buffer": 0,
      "byteOffset": 240000,
      "byteLength": 100992,
      "target": 34962,
      "byteStride": 12
    },
    {
      "buffer": 0,
      "byteOffset": 340992,
      "byteLength": 100992,
      "target": 34962,
      "byteStride": 12
    },
    {
      "buffer": 0,
      "byteOffset": 441984,
      "byteLength": 50496,
      "target": 34963
    }
  ],
  "buffers": [
    {
      "byteLength": 492480,
      "uri": "data:application/octet-stream;base64,"
    }
  ],
  "accessors": [
    {
      "bufferView": 0,
      "componentType": 5126,
      "count": 3200,
      "max": [
        89.54301452636719,
        23.141572952270508,
        15.900646209716797
      ],
      "min": [
        -89.48797607421875,
        -23.617284774780273,
        -14.821207046508789
      ],
      "type": "VEC3"
    },
    {
      "bufferView": 1,
      "componentType": 5126,
      "count": 3200,
      "max": [
        0.9977362155914307,
        0.994185209274292,
        0.9994242191314697
      ],
      "min": [
        -0.9999718070030212,
        -0.9996330738067627,
        -0.9968793988227844
      ],
      "type": "VEC3"
    },
    {
      "bufferView": 2,
      "componentType": 5125,
      "count": 4800,
      "max": [
        3199
      ],
      "min": [
        0
      ],
      "type": "SCALAR"
    },
    {
      "bufferView": 3,
      "componentType": 5126,
      "count": 3200,
      "max": [
        89.93524169921875,
        23.3632869720459,
        14.091062545776367
      ],
      "min": [
        -89.57086181640625,
        -23.848543167114258,
        -12.052364349365234
      ],
      "type": "VEC3"
    },
    {
      "bufferView": 4,
      "componentType": 5126,
      "count": 3200,
      "max": [
        0.9999696612358093,
        0.9988069534301758,
        0.9999098181724548
      ],
      "min": [
        -0.9977316856384277,
        -0.9990152716636658,
        -0.9975180625915527
      ],
      "type": "VEC3"
    },
    {
      "bufferView": 5,
      "componentType": 5125,
      "count": 4800,
      "max": [
        3199
      ],
      "min": [
        0
      ],
      "type": "SCALAR"
    },
    {
      "bufferView": 6,
      "componentType": 5126,
      "count": 1600,
      "max": [
        132.14547729492188,
        195.75149536132812,
        123.01152038574219
      ],
      "min": [
        -132.32589721679688,
        -20.637624740600586,
        -37.01651382446289
      ],
      "type": "VEC3"
    },
    {
      "bufferView": 7,
      "componentType": 5126,
      "count": 1600,
      "max": [
        0.9950072169303894,
        0.9999902248382568,
        0.999997079372406
      ],
      "min": [
        -0.9981005787849426,
        -0.9997822046279907,
        -0.9998013377189636
      ],
      "type": "VEC3"
    },
    {
      "bufferView": 8,
      "componentType": 5125,
      "count": 2400,
      "max": [
        1599
      ],
      "min": [
        0
      ],
      "type": "SCALAR"
    },
    {
      "bufferView": 9,
      "componentType": 5126,
      "count": 8416,
      "max": [
        157.02462768554688,
        167.8233642578125,
        129.0010223388672
      ],
      "min": [
        -155.4440155029297,
        -154.44424438476562,
        -146.0896453857422
      ],
      "type": "VEC3"
    },
    {
      "bufferView": 10,
      "componentType": 5126,
      "count": 8416,
      "max": [
        0.9999485015869141,
        0.999954342842102,
        0.999931275844574
      ],
      "min": [
        -0.9999449253082275,
        -0.9997246265411377,
        -0.9988256096839905
      ],
      "type": "VEC3"
    },
    {
      "bufferView": 11,
      "componentType": 5125,
      "count": 12624,
      "max": [
        8415
      ],
      "min": [
        0
      ],
      "type": "SCALAR"
    }
  ],
  "meshes": [
    {
      "primitives": [
        {
          "mode": 4,
          "attributes": {
            "POSITION": 0,
            "NORMAL": 1
          },
          "extras": {
            "type": "SubdivGeometry",
            "parameters": {
              "width": 179.90541076660156,
              "height": 49.52560043334961,
              "depth": 33.7664909362793
            }
          },
          "indices": 2
        }
      ]
    },
    {
      "primitives": [
        {
          "mode": 4,
          "attributes": {
            "POSITION": 3,
            "NORMAL": 4
          },
          "extras": {
            "type": "SubdivGeometry",
            "parameters": {
              "width": 180.16561889648438,
              "height": 49.37312698364258,
              "depth": 29.083274841308594
            }
          },
          "indices": 5
        }
      ]
    },
    {
      "primitives": [
        {
          "mode": 4,
          "attributes": {
            "POSITION": 6,
            "NORMAL": 7
          },
          "extras": {
            "type": "SubdivGeometry",
            "parameters": {
              "width": 269.53277587890625,
              "height": 223.51416778564453,
              "depth": 162.65054321289062
            }
          },
          "indices": 8
        }
      ]
    },
    {
      "primitives": [
        {
          "mode": 4,
          "attributes": {
            "POSITION": 9,
            "NORMAL": 10
          },
          "extras": {
            "type": "SubdivGeometry",
            "parameters": {
              "width": 322.01971435546875,
              "height": 323.6899719238281,
              "depth": 278.6095428466797
            }
          },
          "indices": 11
        }
      ]
    }
  ],
  "cameras": [
    {
      "type": "perspective",
      "perspective": {
        "aspectRatio": 1.9310344827586208,
        "yfov": 0.7853981633974483,
        "zfar": 100000,
        "znear": 70
      }
    }
  ]
}